HIERARCHY
ROOT Hips
{
	OFFSET 0.00000 0.00000 0.00000
	CHANNELS 6 Xposition Yposition Zposition Yrotation Zrotation Xrotation 
	JOINT Lumbar
	{
		OFFSET 0 0 0
		CHANNELS 3 Zrotation Xrotation Yrotation
		JOINT Neck
		{
			OFFSET 0.00 0.2701 0.00
			CHANNELS 3 Zrotation Xrotation Yrotation
			End Site
			{
				OFFSET 0.00 0.1379 0.00
			}
		}
		JOINT RightShoulder
		{
			OFFSET 0.0119 0.2289 0.1181
			CHANNELS 3 Zrotation Xrotation Yrotation
			JOINT RightElbow
			{
				OFFSET 0.00 -0.1475 0.00
				CHANNELS 2 Zrotation Yrotation
				JOINT RightWrist
				{
					OFFSET 0.00 -0.1605 0.00
					CHANNELS 2 Zrotation Xrotation
					End Site
					{
						OFFSET 0.0040 -0.1068 0.0006
					}
				}
			}
		}
		JOINT LeftShoulder
		{
			OFFSET 0.0119 0.2289 -0.1181
			CHANNELS 3 Zrotation Xrotation Yrotation
			JOINT LeftElbow
			{
				OFFSET 0.00 -0.1475 0.00
				CHANNELS 2 Zrotation Yrotation
				JOINT LeftWrist
				{
					OFFSET 0.00 -0.1605 0.00
					CHANNELS 2 Zrotation Xrotation
					End Site
					{
						OFFSET 0.0040 -0.1068 -0.0006
					}
				}
			}
		}
	}
	JOINT RightHip
	{
		OFFSET 0.0316 -0.0424 0.0458
		CHANNELS 3 Zrotation Xrotation Yrotation
		JOINT RightKnee
		{
			OFFSET 0.00 -0.2438 0.00
			CHANNELS 1 Zrotation
			JOINT RightAnkle
			{
				OFFSET 0.00 -0.2449 0.00
				CHANNELS 3 Zrotation Xrotation Yrotation
				End Site
				{
					OFFSET 0.1237 -0.0542 0.0051
				}
			}
		}
	}
	JOINT LeftHip
	{
		OFFSET 0.0316 -0.0424 -0.0458
		CHANNELS 3 Zrotation Xrotation Yrotation
		JOINT LeftKnee
		{
			OFFSET 0.00 -0.2438 0.00
			CHANNELS 1 Zrotation
			JOINT LeftAnkle
			{
				OFFSET 0.00 -0.2449 0.00
				CHANNELS 3 Zrotation Xrotation Yrotation
				End Site
				{
					OFFSET 0.1237 -0.0542 -0.0051
				}
			}
		}
	}
}
MOTION
Frames: 24
Frame Time: 0.02
-0.45845 -0.01278 -0.36993 244.07128 -37.46925 -0.59171 45.49766 -1.34298 1.13041 -2.88833 0.75894 -0.83079 -10.88812 -23.29177 43.79072 107.65507 87.48891 5.55793 -1.02224 -11.46479 22.48883 -45.03089 111.53619 -109.20961 9.74093 -3.96852 53.04567 0.39327 -2.7352 -33.9003 -7.0852 -2.14535 -1.7488 45.11458 13.1969 -5.73754 -20.96447 -9.55747 3.91518 2.83427
-0.4531 -0.01248 -0.3693 243.14921 -37.5639 -0.69079 45.44443 -1.39115 0.75555 -2.90733 0.64475 -0.83079 -10.95871 -23.10474 43.69161 107.82623 89.67302 5.84843 -0.36166 -10.66242 23.24528 -45.83215 111.85407 -108.85493 10.2652 -3.66322 53.64439 0.00841 -2.66518 -34.24195 -7.15587 -2.06321 -1.70582 45.01065 12.92777 -4.65636 -20.84152 -9.4102 3.92175 2.82924
-0.44767 -0.01212 -0.36909 242.23383 -37.71669 -0.79867 45.36964 -1.43452 0.4429 -2.87376 0.50238 -0.83079 -11.02633 -22.84433 43.75159 107.9875 92.38549 6.09532 0.49216 -9.73926 24.14984 -46.81816 112.19813 -108.77316 10.78425 -3.4459 54.30628 -0.3492 -2.66814 -34.45787 -7.23687 -1.9821 -1.66383 44.96504 12.73033 -3.41775 -20.56815 -9.26558 3.88709 2.8014
-0.44227 -0.0118 -0.36872 241.31218 -37.84787 -0.90499 45.30179 -1.47915 0.10246 -2.85354 0.37261 -0.83079 -11.08423 -22.61898 43.77489 108.1563 94.78024 6.33742 1.23992 -8.88343 24.98316 -47.72714 112.52821 -108.52293 11.27772 -3.19055 54.9417 -0.70831 -2.61916 -34.71633 -7.3133 -1.90264 -1.62265 44.91487 12.49649 -2.28758 -20.38203 -9.12537 3.87556 2.78671
-0.43689 -0.01145 -0.36822 240.40628 -37.96088 -1.00065 45.24519 -1.52693 -0.24247 -2.87583 0.24011 -0.83079 -11.18793 -22.38498 43.65169 108.3145 97.51018 6.68244 2.0703 -7.97201 25.83638 -48.61237 112.86939 -108.40571 11.88099 -2.91893 55.57329 -1.11514 -2.64898 -35.03429 -7.39031 -1.81349 -1.57578 44.77529 12.27581 -1.00341 -20.11253 -8.96262 3.84586 2.76049
-0.43147 -0.01113 -0.36809 239.46859 -38.12446 -1.12091 45.16089 -1.56728 -0.56113 -2.79928 0.10787 -0.83079 -11.19645 -22.15312 43.86567 108.49049 99.66621 6.80521 2.77181 -7.14855 26.68189 -49.5863 113.19236 -108.0987 12.25927 -2.70438 56.22331 -1.41569 -2.53804 -35.19848 -7.46768 -1.74511 -1.54113 44.83344 12.04727 0.0009 -19.9805 -8.84683 3.84354 2.75247
-0.42591 -0.0109 -0.36883 238.4391 -38.41653 -1.30463 44.99894 -1.58857 -0.83717 -2.44525 -0.01537 -0.83079 -10.93585 -21.93282 45.02458 108.73176 100.08683 6.29853 3.07709 -6.60158 27.47079 -50.79142 113.4632 -107.18442 11.99507 -2.63658 56.93729 -1.42565 -1.9465 -34.98028 -7.54925 -1.7334 -1.54017 45.43694 11.7623 0.15788 -20.28808 -8.86232 3.93352 2.80411
-0.42034 -0.0107 -0.36992 237.37797 -38.75645 -1.51303 44.81117 -1.60267 -1.0859 -1.99691 -0.13708 -0.83079 -10.58097 -21.71968 46.50757 108.98883 99.91404 5.57427 3.24432 -6.14697 28.24532 -52.0732 113.71333 -106.08142 11.50958 -2.62291 57.66125 -1.32976 -1.22261 -34.61123 -7.62962 -1.74289 -1.55159 46.23447 11.47024 0.03365 -20.73574 -8.92444 4.0513 2.87418
-0.41482 -0.01048 -0.37087 236.33186 -39.07243 -1.71197 44.63936 -1.61992 -1.33755 -1.60316 -0.25987 -0.83079 -10.27383 -21.51115 47.80775 109.22915 100.02592 4.96692 3.46915 -5.64805 29.02653 -53.29887 113.97012 -105.08174 11.14118 -2.57818 58.36235 -1.28483 -0.60841 -34.30252 -7.70673 -1.74283 -1.55712 46.93414 11.19308 0.06241 -21.10481 -8.96357 4.15201 2.93331
-0.40912 -0.01027 -0.37179 235.28122 -39.40055 -1.90476 44.44862 -1.63728 -1.6277 -1.15789 -0.38214 -0.83079 -9.94568 -21.26622 49.26364 109.50841 100.09413 4.28254 3.72127 -5.15507 29.81602 -54.62084 114.24088 -104.01196 10.70321 -2.5618 59.14574 -1.22791 0.20773 -34.0188 -7.80045 -1.74173 -1.56336 47.67733 10.86961 -0.00702 -21.53135 -9.0103 4.26988 3.00241
-0.4038 -0.01005 -0.37284 234.23507 -39.71299 -2.11491 44.29189 -1.65303 -1.83126 -0.79844 -0.5047 -0.83079 -9.63923 -21.10054 50.4699 109.71186 100.10419 3.70677 3.88281 -4.67281 30.57831 -55.75805 114.47549 -103.04573 10.35705 -2.5004 59.75591 -1.16994 0.6414 -33.65546 -7.85894 -1.74868 -1.57159 48.37444 10.63933 0.05591 -21.87371 -9.05235 4.35928 3.05549
-0.39951 -0.00978 -0.37417 233.18668 -39.97864 -2.37691 44.2318 -1.6638 -1.80868 -0.69702 -0.62844 -0.83079 -9.41368 -21.14582 50.908 109.69011 100.10476 3.49067 3.81225 -4.20249 31.30714 -56.36426 114.63033 -102.36538 10.32432 -2.28226 59.91308 -1.14557 -0.06226 -33.05363 -7.82237 -1.76522 -1.57775 48.90317 10.67332 0.5797 -21.94797 -9.06929 4.36256 3.05941
-0.39563 -0.0095 -0.37563 232.14835 -40.22503 -2.65356 44.20766 -1.67358 -1.69905 -0.68561 -0.75235 -0.83079 -9.21383 -21.27209 51.08258 109.59382 100.06219 3.39056 3.6567 -3.73988 32.00107 -56.78101 114.74657 -101.80435 10.39056 -2.0204 59.88987 -1.12196 -1.14573 -32.38817 -7.75008 -1.79047 -1.5863 49.37752 10.7999 1.23982 -21.9338 -9.08014 4.33664 3.04682
-0.39159 -0.00923 -0.37704 231.11969 -40.47452 -2.917 44.16946 -1.68546 -1.62542 -0.63492 -0.87601 -0.83079 -9.00332 -21.36572 51.37701 109.53956 100.03445 3.23299 3.55008 -3.27062 32.68542 -57.2853 114.87046 -101.21636 10.4078 -1.7904 59.93091 -1.09121 -2.02312 -31.78856 -7.69271 -1.81663 -1.59677 49.87212 10.88043 1.82038 -21.96171 -9.09413 4.32464 3.04212
-0.38742 -0.00893 -0.37842 230.02857 -40.74953 -3.20922 44.12048 -1.69046 -1.56572 -0.57511 -1.00042 -0.83079 -8.78434 -21.44209 51.68342 109.4514 100.01187 3.08702 3.3975 -2.81614 33.47742 -57.7876 115.03532 -100.5021 10.43444 -1.51059 60.0479 -1.08546 -3.03795 -31.02654 -7.64044 -1.82311 -1.59514 50.39168 10.97791 2.46896 -21.9861 -9.10776 4.31052 3.03622
-0.38363 -0.0087 -0.3799 229.07188 -40.96623 -3.44432 44.10313 -1.70922 -1.45684 -0.55557 -1.12325 -0.83079 -8.59142 -21.57342 51.89686 109.41598 99.96925 2.94829 3.31942 -2.33361 34.03628 -58.24642 115.10607 -100.08755 10.4677 -1.32484 59.96282 -1.02913 -3.85758 -30.5911 -7.56957 -1.87219 -1.61893 50.84468 11.06166 3.00763 -21.99542 -9.12064 4.29395 3.02892
-0.38075 -0.00867 -0.38159 228.47119 -41.02595 -3.52063 44.16203 -1.76976 -1.23176 -0.63744 -1.24215 -0.83079 -8.45501 -21.8379 51.92663 109.54371 99.94366 2.79377 3.49312 -1.75439 33.96627 -58.64344 114.92549 -100.41872 10.49809 -1.39663 59.37118 -0.8345 -4.05471 -31.06049 -7.4521 -2.03787 -1.71379 51.11865 11.08946 3.24757 -21.98025 -9.1281 4.27401 3.01953
-0.37825 -0.00871 -0.38339 228.0079 -41.02766 -3.53828 44.25216 -1.84351 -0.96028 -0.75497 -1.35924 -0.83079 -8.34579 -22.15449 51.86889 109.72687 99.89243 2.6451 3.74111 -1.15015 33.66173 -58.99985 114.65203 -101.05622 10.53242 -1.56644 58.58104 -0.58951 -4.04242 -31.8628 -7.31793 -2.24556 -1.8337 51.3282 11.09958 3.36699 -21.95283 -9.13574 4.25314 3.00962
-0.3756 -0.00873 -0.38516 227.49029 -41.05598 -3.5811 44.32954 -1.90898 -0.71174 -0.84858 -1.47705 -0.83079 -8.23101 -22.44663 51.84369 109.88538 99.8132 2.49961 3.93866 -0.5674 33.46044 -59.36762 114.42145 -101.59146 10.56391 -1.69984 57.87685 -0.36664 -4.11891 -32.523 -7.194 -2.43349 -1.94129 51.57175 11.11458 3.5173 -21.93363 -9.14624 4.23511 3.00139
-0.37288 -0.00871 -0.38684 226.93899 -41.0821 -3.63101 44.40174 -1.98418 -0.45377 -0.97766 -1.59585 -0.83079 -8.08971 -22.74551 51.83922 110.04012 99.89265 2.33301 4.20186 0.0606 33.27192 -59.76191 114.18567 -101.98275 10.60258 -1.79846 57.18409 -0.14555 -4.23052 -33.14637 -7.05748 -2.62555 -2.05343 51.79326 11.14542 3.77085 -21.90138 -9.14401 4.20609 2.9866
-0.37039 -0.00878 -0.38874 226.49005 -41.0999 -3.65166 44.4921 -2.04206 -0.20375 -1.04039 -1.71145 -0.83079 -8.0081 -23.04084 51.77521 110.21549 99.64472 2.21074 4.34924 0.59681 33.00169 -60.08986 113.94044 -102.73504 10.62665 -1.99206 56.42309 0.08944 -4.22065 -33.921 -6.94385 -2.81759 -2.16136 52.04645 11.13874 3.78172 -21.89309 -9.16854 4.19982 2.98542
-0.36841 -0.00906 -0.39114 226.2931 -41.10375 -3.60873 44.62122 -2.05057 -0.00287 -0.9092 -1.8247 -0.83079 -8.09843 -23.31994 51.56026 110.44567 98.42557 2.20563 4.14014 0.90408 32.56213 -60.27848 113.68107 -104.49362 10.6032 -2.43432 55.52017 0.36599 -3.86999 -35.07602 -6.89639 -3.01029 -2.25723 52.39991 11.02498 3.12939 -21.96594 -9.26572 4.25909 3.02316
-0.36664 -0.00943 -0.39376 226.19391 -41.10246 -3.53758 44.76791 -2.04091 0.19093 -0.71002 -1.93372 -0.83079 -8.24465 -23.59187 51.29135 110.69263 96.89122 2.24512 3.81554 1.11241 32.04885 -60.39618 113.41749 -106.58749 10.56528 -2.96641 54.55702 0.65231 -3.41256 -36.36204 -6.87289 -3.19956 -2.34702 52.78842 10.87524 2.24139 -22.06113 -9.39004 4.34083 3.07438
-0.36478 -0.00975 -0.39631 226.04784 -41.10683 -3.4776 44.90907 -2.03845 0.3979 -0.54276 -2.0406 -0.83079 -8.35683 -23.86275 51.05341 110.92519 95.55049 2.26608 3.55671 1.34599 31.57018 -60.52525 113.16322 -108.4733 10.53809 -3.45162 53.62329 0.92345 -3.03969 -37.56181 -6.83941 -3.38294 -2.43571 53.16298 10.74639 1.47438 -22.13915 -9.50274 4.41093 3.11881
